{
	"asset":{
		"generator":"Khronos glTF Blender I/O v4.1.63",
		"version":"2.0"
	},
	"scene":0,
	"scenes":[
		{
			"name":"Scene",
			"nodes":[
				1
			]
		}
	],
	"nodes":[
		{
			"mesh":0,
			"name":"ringfinal"
		},
		{
			"children":[
				0
			],
			"mesh":1,
			"name":"ballfinal",
			"rotation":[
				0.7071068286895752,
				0,
				0,
				0.7071068286895752
			]
		}
	],
	"materials":[
		{
			"doubleSided":true,
			"name":"Union1Mtl.001",
			"pbrMetallicRoughness":{
				"baseColorFactor":[
					0.800000011920929,
					0.800000011920929,
					0.800000011920929,
					0.5
				],
				"metallicFactor":0,
				"roughnessFactor":0
			}
		},
		{
			"doubleSided":true,
			"name":"Union1Mtl",
			"pbrMetallicRoughness":{
				"baseColorTexture":{
					"index":0
				},
				"metallicFactor":0
			}
		}
	],
	"meshes":[
		{
			"name":"ringfinal",
			"primitives":[
				{
					"attributes":{
						"POSITION":0,
						"NORMAL":1,
						"TEXCOORD_0":2
					},
					"indices":3,
					"material":0
				}
			]
		},
		{
			"name":"ballfinal",
			"primitives":[
				{
					"attributes":{
						"POSITION":4,
						"NORMAL":5,
						"TEXCOORD_0":6
					},
					"indices":7,
					"material":1
				}
			]
		}
	],
	"textures":[
		{
			"sampler":0,
			"source":0
		}
	],
	"images":[
		{
			"mimeType":"image/png",
			"name":"texturev2",
			"uri":"texturev2.png"
		}
	],
	"accessors":[
		{
			"bufferView":0,
			"componentType":5126,
			"count":273,
			"max":[
				0.20875099301338196,
				8.350000381469727,
				8.350000381469727
			],
			"min":[
				-0.20875099301338196,
				-8.350000381469727,
				-8.350000381469727
			],
			"type":"VEC3"
		},
		{
			"bufferView":1,
			"componentType":5126,
			"count":273,
			"type":"VEC3"
		},
		{
			"bufferView":2,
			"componentType":5126,
			"count":273,
			"type":"VEC2"
		},
		{
			"bufferView":3,
			"componentType":5123,
			"count":576,
			"type":"SCALAR"
		},
		{
			"bufferView":4,
			"componentType":5126,
			"count":1311,
			"max":[
				4.175000190734863,
				4.175000190734863,
				4.175000190734863
			],
			"min":[
				-4.175000190734863,
				-4.175000190734863,
				-4.175000190734863
			],
			"type":"VEC3"
		},
		{
			"bufferView":5,
			"componentType":5126,
			"count":1311,
			"type":"VEC3"
		},
		{
			"bufferView":6,
			"componentType":5126,
			"count":1311,
			"type":"VEC2"
		},
		{
			"bufferView":7,
			"componentType":5123,
			"count":6792,
			"type":"SCALAR"
		}
	],
	"bufferViews":[
		{
			"buffer":0,
			"byteLength":3276,
			"byteOffset":0,
			"target":34962
		},
		{
			"buffer":0,
			"byteLength":3276,
			"byteOffset":3276,
			"target":34962
		},
		{
			"buffer":0,
			"byteLength":2184,
			"byteOffset":6552,
			"target":34962
		},
		{
			"buffer":0,
			"byteLength":1152,
			"byteOffset":8736,
			"target":34963
		},
		{
			"buffer":0,
			"byteLength":15732,
			"byteOffset":9888,
			"target":34962
		},
		{
			"buffer":0,
			"byteLength":15732,
			"byteOffset":25620,
			"target":34962
		},
		{
			"buffer":0,
			"byteLength":10488,
			"byteOffset":41352,
			"target":34962
		},
		{
			"buffer":0,
			"byteLength":13584,
			"byteOffset":51840,
			"target":34963
		}
	],
	"samplers":[
		{
			"magFilter":9729,
			"minFilter":9987
		}
	],
	"buffers":[
		{
			"byteLength":65424,
			"uri":"final.bin"
		}
	]
}
